<svg xmlns="http://www.w3.org/2000/svg" viewBox="0 0 32 32">
  <defs>
    <linearGradient id="g" x1="0" y1="0" x2="1" y2="1">
      <stop offset="0%" stop-color="#FF6B6B"/>
      <stop offset="100%" stop-color="#FF9A56"/>
    </linearGradient>
  </defs>
  <circle cx="16" cy="16" r="16" fill="url(#g)"/>
  <path d="M16 8c-1.1 0-2 .9-2 2v6c0 1.1.9 2 2 2s2-.9 2-2v-6c0-1.1-.9-2-2-2z" fill="white"/>
  <path d="M20 14v2c0 2.2-1.8 4-4 4s-4-1.8-4-4v-2h-2v2c0 3 2.2 5.4 5 5.9V23h-2v2h6v-2h-2v-1.1c2.8-.5 5-2.9 5-5.9v-2h-2z" fill="white"/>
</svg>
